<?xml version="1.0" encoding="UTF-8" standalone="no"?>
<!-- Created with Inkscape (http://www.inkscape.org/) -->

<svg
   version="1.1"
   id="svg1"
   width="671.60876"
   height="1017.1903"
   viewBox="0 0 671.60876 1017.1903"
   sodipodi:docname="167b.svg"
   inkscape:version="1.3.2 (091e20ef0f, 2023-11-25)"
   xmlns:inkscape="http://www.inkscape.org/namespaces/inkscape"
   xmlns:sodipodi="http://sodipodi.sourceforge.net/DTD/sodipodi-0.dtd"
   xmlns="http://www.w3.org/2000/svg"
   xmlns:svg="http://www.w3.org/2000/svg">
  <defs
     id="defs1" />
  <sodipodi:namedview
     id="namedview1"
     pagecolor="#ffffff"
     bordercolor="#000000"
     borderopacity="0.25"
     inkscape:showpageshadow="2"
     inkscape:pageopacity="0.0"
     inkscape:pagecheckerboard="0"
     inkscape:deskcolor="#d1d1d1"
     showgrid="false"
     inkscape:zoom="0.81090836"
     inkscape:cx="291.64824"
     inkscape:cy="410.034"
     inkscape:window-width="1920"
     inkscape:window-height="1011"
     inkscape:window-x="0"
     inkscape:window-y="0"
     inkscape:window-maximized="1"
     inkscape:current-layer="layer2" />
  <g
     inkscape:groupmode="layer"
     id="layer2"
     inkscape:label="Layer 1">
    <path
       id="path1"
       style="fill:#000000"
       d="M 376.02798 24.049743 C 375.5254 24.01402 375.04763 24.559202 374.19399 25.657165 C 373.20039 26.935147 370.16239 35.935179 367.44399 45.657165 C 364.72559 55.379151 359.53795 70.682849 355.91665 79.664977 C 352.29532 88.647109 349.33266 97.180814 349.33266 98.629821 C 349.33266 100.20857 350.93572 102.09343 353.33266 103.33295 C 357.97088 105.73144 358.61106 109.88994 354.66665 112.00091 C 350.69016 114.12906 347.43394 111.72523 344.74282 104.67865 L 342.40688 98.565368 L 336.78579 103.74701 C 329.52323 110.44137 321.67404 114.90755 309.67641 119.17084 C 296.77512 123.75522 289.33266 127.66265 289.33266 129.85248 C 289.33266 131.72852 295.8806 133.29337 303.84243 133.31927 C 306.32254 133.32734 310.22191 134.46885 312.50844 135.85638 C 314.795 137.24394 318.54178 138.77456 320.83462 139.25873 C 323.12743 139.74289 329.06797 142.8077 334.03383 146.06927 C 338.99972 149.33088 343.67119 152.00091 344.41469 152.00091 C 345.1582 152.00091 348.41626 150.44772 351.65493 148.54974 C 354.89359 146.65178 357.9457 145.50038 358.43813 145.99115 C 362.09344 149.63411 361.30769 455.11778 357.61977 464.16498 C 356.62213 466.61239 356.61647 468.08354 357.59829 469.06537 C 359.76284 471.22991 357.69425 479.13249 354.43032 481.17084 C 351.89318 482.75531 351.30709 482.67917 349.7643 480.56927 C 348.79379 479.24205 348.00063 476.84453 348.00063 475.24115 C 348.00063 473.63777 347.11366 471.58979 346.02993 470.69037 C 344.9462 469.79096 341.05211 463.34597 337.37758 456.36615 C 333.70308 449.38633 327.2413 438.79725 323.01626 432.83685 C 311.951 417.22688 281.77766 387.33434 268.66665 378.99115 C 262.79998 375.2579 256.4715 371.01207 254.60415 369.55756 C 249.33696 365.45478 232.56104 362.88584 202.00063 361.50092 C 176.86158 360.36166 172.97887 359.86616 164.00063 356.65521 C 155.84053 353.73685 152.28274 353.17397 144.66665 353.59076 C 139.53331 353.87169 133.53266 354.98174 131.33266 356.05951 C 126.03484 358.65489 125.25114 364.26566 129.56899 368.68256 C 137.4107 376.70412 137.62502 377.03189 135.77016 378.2099 C 134.79692 378.828 131.45563 383.02025 128.34633 387.52631 C 121.44603 397.52637 118.61168 408.5362 118.25454 426.72357 C 118.03746 437.77872 118.37068 440.09756 120.51821 442.48529 C 124.00734 446.36467 122.82186 453.65644 115.18032 475.32709 C 111.81744 484.86384 108.77376 493.92453 108.41665 495.46185 C 108.02299 497.15648 110.16411 503.02863 113.85415 510.37592 L 119.94008 522.49506 L 126.30337 523.50482 C 129.80312 524.06015 136.06689 524.53752 140.22329 524.56732 C 147.16001 524.61712 148.30616 524.17612 154.18618 519.19232 L 160.59243 513.76263 L 178.39516 525.54779 C 188.18708 532.02899 203.13561 541.02526 211.61391 545.53998 L 227.02993 553.74896 L 226.23696 564.02631 C 225.39969 574.88374 220.70347 590.00251 210.71352 614.00091 C 204.65512 628.55476 197.33266 651.9119 197.33266 656.68451 C 197.33266 658.33721 200.03269 663.63257 203.33266 668.45209 C 213.04848 682.64164 211.35328 689.0965 195.75258 697.29388 C 191.12253 699.72676 184.03396 703.70983 180.00063 706.14349 C 171.35688 711.3591 150.5909 719.55347 142.90688 720.78216 C 134.36173 722.14859 131.47285 726.26214 130.8854 737.89545 C 129.87688 757.86686 136.41071 861.15698 139.42837 872.95013 C 142.08666 883.33901 150.38764 900.37214 157.14321 909.29779 C 160.18099 913.31139 162.66665 917.82781 162.66665 919.3349 C 162.66665 923.55083 154.38039 939.88138 146.12173 951.94037 C 142.03116 957.91325 138.34677 964.41921 137.93423 966.39935 C 136.49922 973.28673 132.25793 980.72778 124.10219 990.66693 C 110.56013 1007.1704 98.666647 1029.3891 98.666647 1038.1845 C 98.666647 1041.5159 98.911872 1041.6358 104.06704 1040.8115 C 116.32037 1038.8521 161.38542 1021.7659 165.77602 1017.415 C 166.75199 1016.4478 164.99014 994.88773 163.29946 987.10834 C 162.74836 984.57254 163.74396 983.85894 171.38735 981.31537 C 176.69199 979.55009 180.8663 977.25011 182.05337 975.43841 C 183.12618 973.80108 184.90539 965.60809 186.00649 957.23138 C 190.30471 924.53259 198.07861 903.95355 213.46938 884.53021 C 217.01535 880.05518 220.54269 874.74364 221.30923 872.72748 C 222.26767 870.20651 223.35277 869.31189 224.78188 869.86029 C 225.92481 870.29887 228.06422 870.01308 229.53579 869.22552 C 232.89723 867.42655 239.98295 852.66649 240.04555 847.33295 C 240.11541 841.38059 246.76194 825.59532 256.25063 808.85052 C 262.72068 797.43275 267.28746 791.36649 276.00063 782.60638 C 282.23396 776.33949 289.36634 770.38067 291.85219 769.36615 C 295.94597 767.69541 297.25069 767.82044 305.69204 770.69427 C 319.80373 775.49859 328.36442 781.08796 330.17446 786.67865 C 331.00566 789.24601 333.31915 792.32543 335.33462 793.54584 C 340.63881 796.75762 354.87143 799.19379 368.77016 799.26849 C 380.62876 799.33219 380.97643 799.24344 385.95376 794.87982 C 390.01608 791.31841 391.73089 790.60956 394.51626 791.34076 C 401.89711 793.27834 410.21501 793.44557 415.33266 791.75873 C 419.93831 790.24065 420.72318 789.40774 421.08462 785.65716 C 421.75321 778.71939 426.69707 777.1718 458.16274 774.04974 L 466.3268 773.2392 L 471.14321 783.38177 C 475.15279 791.82481 476.43373 793.45157 478.7936 793.09466 C 481.77557 792.64369 483.83579 789.39928 490.7018 774.33295 C 495.38901 764.04768 499.11917 761.33295 508.56704 761.33295 C 513.80677 761.33295 514.84843 761.81789 516.50454 765.02045 C 521.21254 774.12475 556.16563 803.98584 570.78774 811.39545 C 579.42423 815.77188 581.33266 818.03133 581.33266 823.88177 C 581.33266 832.63164 576.21022 849.58562 571.35805 856.89349 C 568.83778 860.68934 559.76699 871.19144 551.19985 880.23138 C 530.55391 902.0167 525.79959 908.53854 521.53188 920.93451 C 516.84132 934.55873 506.73929 951.37769 496.16079 963.17865 C 484.65408 976.01509 478.31906 985.51766 480.08657 987.28607 C 480.95374 988.15368 492.32025 988.66693 510.69008 988.66693 C 546.49279 988.66693 544.31033 989.85718 547.36196 968.66693 C 550.105 949.61945 552.74137 940.41009 555.94008 938.69818 C 557.34316 937.94727 560.59505 937.33295 563.16665 937.33295 C 565.73822 937.33295 568.27342 936.63721 568.79946 935.78607 C 569.32549 934.93492 569.62946 930.74129 569.47524 926.46771 C 569.12906 916.87483 571.40216 911.42743 583.25454 893.45209 C 595.77642 874.46139 609.73363 857.99211 616.83071 853.83295 L 622.86782 850.29584 L 626.43423 852.93646 C 643.29527 865.42021 656.69681 918.07783 650.02798 945.63763 C 647.37238 956.61219 642.55404 966.95878 638.14321 971.15912 C 636.50252 972.72151 633.01441 977.60094 630.39126 982.00091 C 624.51586 991.85602 612.00063 1016.7907 612.00063 1018.6415 C 612.00063 1022.5601 633.19974 1017.9049 653.36782 1009.5576 C 660.31573 1006.6819 669.38492 1003.3569 673.52212 1002.1689 C 677.6593 1000.9809 681.40998 999.05804 681.8561 997.89545 C 683.39512 993.88483 682.6579 976.63856 680.52212 966.66693 C 678.66296 957.98696 678.49164 949.18749 679.22524 900.00091 L 680.07094 843.33295 L 676.89321 836.61224 C 673.97728 830.44597 666.76598 822.66693 663.96548 822.66693 C 663.32518 822.66693 660.06981 820.82513 656.73305 818.57318 C 651.7874 815.23538 650.66665 813.73748 650.66665 810.47162 C 650.66665 806.29459 644.75491 795.25102 632.48891 776.51654 C 620.71053 758.52682 620.70816 758.88545 632.63149 736.55756 C 641.78343 719.41937 643.48309 712.77571 645.31899 686.97552 C 646.11571 675.77923 647.1089 665.73047 647.52602 664.64349 C 648.80435 661.31223 651.22126 662.37374 659.58266 669.94037 C 674.96704 683.86241 677.14075 696.66092 674.82485 759.6767 C 673.91364 784.47073 673.8257 802.47118 674.58852 807.70404 C 676.79273 822.82484 692.52255 847.30577 707.27016 858.56537 C 714.47849 864.06879 726.73505 870.66693 729.74868 870.66693 C 730.75941 870.66693 732.67331 871.86628 734.00063 873.33295 C 735.32795 874.79959 737.37005 875.9971 738.53969 875.9931 C 739.70937 875.98884 747.11152 879.09247 754.98891 882.89154 C 762.86629 886.6906 769.71106 889.40182 770.1979 888.91498 C 770.68474 888.42814 768.85375 884.57321 766.12954 880.34857 C 754.01857 861.56745 747.89022 843.07854 745.24477 817.33295 C 742.97657 795.25875 745.57104 774.18936 752.61977 757.44232 C 757.54919 745.73057 759.27116 728.05467 757.43813 707.96771 C 755.58448 687.65478 754.22507 681.90934 748.30923 669.3642 C 739.37889 650.42658 723.01038 638.29022 696.96157 631.29193 C 690.19922 629.47514 673.26597 626.48622 659.33266 624.64935 C 645.39939 622.81247 631.40225 620.34703 628.22719 619.17084 C 625.05216 617.99465 618.45276 613.46746 613.56118 609.11029 C 601.99029 598.80359 589.29661 592.64448 574.00063 589.91693 C 545.17988 584.77769 529.82364 581.22384 526.85415 579.00677 C 525.1001 577.69722 521.15766 572.22062 518.09438 566.8349 C 512.308 556.66144 508.55933 553.46002 502.33266 553.37982 C 499.54926 553.34396 498.66665 552.67995 498.66665 550.62006 C 498.66665 549.12759 497.616 546.30283 496.33266 544.34271 C 494.35443 541.32123 494.03048 537.828 494.19594 521.38959 C 494.41437 499.6888 496.68712 482.54368 502.86587 456.00092 C 505.78575 443.45752 507.06638 434.56461 507.09048 426.66693 C 507.1271 414.65125 506.74818 413.42283 498.44204 398.66693 C 491.83551 386.93044 489.05567 377.34007 491.35024 374.20209 C 492.29148 372.91487 493.48272 366.34409 493.99868 359.59857 C 494.51464 352.85305 495.82521 345.42448 496.91079 343.09076 C 498.88532 338.84604 508.57293 329.0742 517.30727 322.51654 L 521.9479 319.03217 L 517.97524 313.27631 C 513.48126 306.76963 498.54273 294.41418 487.61001 288.15912 C 477.17245 282.18734 471.44965 281.49848 449.34438 283.55951 C 428.55633 285.49773 424.00063 287.13853 424.00063 292.68646 C 424.00063 294.49716 422.48173 303.65571 420.62563 313.03802 C 417.48274 328.92489 417.38827 330.48634 419.25258 335.77045 C 421.09033 340.97914 421.04987 342.01453 418.75844 348.38959 C 417.38564 352.20897 415.9422 359.63235 415.55141 364.88568 C 415.11195 370.79336 413.02688 379.65581 410.08657 388.1181 C 404.21093 405.02833 403.88228 412.07682 408.81899 415.31146 C 411.86571 417.30775 412.19913 418.20908 411.4518 422.46381 C 410.98144 425.14167 409.10485 437.23298 407.28188 449.33295 C 404.30717 469.0776 403.61837 471.64049 400.57485 474.33295 C 398.29018 476.35405 395.48469 477.33295 391.97329 477.33295 C 383.4712 477.33295 383.29096 476.43384 383.62563 435.33295 C 384.0415 384.26137 386.43473 298.47527 388.27407 268.66693 C 389.13383 254.73362 389.8737 222.23531 389.9186 196.45013 C 389.96346 170.66498 390.46012 149.10563 391.02212 148.53998 C 392.43158 147.12133 398.71046 151.99531 402.33657 157.32318 C 409.48962 167.83331 408.85011 174.91284 399.5768 187.85638 C 390.80275 200.10308 390.6227 200.8992 392.95766 217.33295 C 393.96646 224.433 394.14224 224.68064 398.46548 225.09466 C 401.39884 225.37559 403.83799 224.68946 405.57485 223.09466 C 407.02898 221.75948 409.82058 219.16625 411.77993 217.33295 C 413.73927 215.49962 417.66488 212.81562 420.50258 211.3681 C 433.48138 204.74766 449.69796 181.01284 455.14321 160.66693 C 460.45797 140.80851 460.49071 112.34618 455.21938 94.668884 C 452.037 83.996836 444.90862 70.635808 439.78774 65.743102 C 434.25195 60.453946 420.82282 54.089524 409.09048 51.194274 C 394.7243 47.649067 390.38234 50.37127 393.27407 61.11029 C 394.67789 66.323666 397.30135 69.473615 407.17251 77.801696 C 411.63723 81.568498 412.43263 83.085672 412.99087 88.895446 C 414.08033 100.23387 406.78343 110.70997 396.34438 112.79779 C 392.99574 113.46752 391.95316 113.07264 390.65102 110.63959 C 388.81593 107.21071 390.12328 105.81167 396.44594 104.44037 C 398.52475 103.9895 400.66527 102.43568 401.2018 100.98529 C 402.79931 96.666829 400.56349 85.064661 396.23305 75.198181 C 394.00211 70.115134 389.43858 57.533626 386.09243 47.239196 C 382.74625 36.944769 379.10709 27.355624 378.00454 25.928649 C 377.0573 24.702682 376.53053 24.085466 376.02798 24.049743 z M 195.57876 473.71771 C 204.9759 474.1247 217.46228 487.66973 224.11001 505.13959 C 227.60105 514.31395 228.26641 527.49767 225.33266 529.35834 C 222.61272 531.08343 221.41836 530.93741 216.00063 528.22162 C 206.99792 523.70872 176.65496 506.03636 175.60219 504.69232 C 173.81175 502.40648 175.71954 490.86392 178.78969 485.40131 C 182.3163 479.12654 188.02841 474.70042 193.74282 473.81537 C 194.33919 473.723 194.95228 473.69058 195.57876 473.71771 z M 402.86001 505.33295 C 410.0585 505.33295 412.6045 506.64482 409.33266 508.66693 C 408.59933 509.12015 407.98011 510.505 407.95571 511.74506 C 407.89117 515.02543 403.95369 519.24305 396.60219 523.90521 C 389.63891 528.3212 386.87734 528.95681 386.06899 526.33295 C 383.80261 518.97635 384.09692 517.7326 389.55727 511.55365 C 394.92215 505.48276 395.24155 505.33295 402.86001 505.33295 z M 215.95962 753.41302 C 216.31657 753.39985 216.52595 753.4149 216.57094 753.4599 C 217.595 754.48396 214.15001 767.96471 204.72719 799.79779 C 199.94643 815.9486 194.19422 835.92753 191.94594 844.19623 C 189.69766 852.46494 187.21659 860.00313 186.43227 860.94818 C 184.37488 863.42718 181.33269 863.0601 181.33266 860.33295 C 181.33265 859.04962 178.64512 854.70027 175.36001 850.66693 C 159.35633 831.01828 158.07603 827.82662 163.57485 821.28607 C 167.09526 817.09874 167.33248 816.05136 167.31508 804.74115 C 167.30108 795.65189 166.53651 790.45578 164.22524 783.72552 C 162.53657 778.80824 161.34457 772.86789 161.5768 770.52435 C 162.28424 763.38546 166.41253 761.57137 192.41274 756.96771 C 203.72371 754.96497 213.46096 753.50525 215.95962 753.41302 z "
       transform="translate(-98.666647,-24.04779)" />
    <path
       id="path2"
       style="display:inline;fill:#6c5353"
       d="M 170.19399 852.43646 C 168.25886 852.56261 166.70011 855.65643 165.27212 861.73334 C 163.48878 869.32238 160.96658 874.94318 157.14516 879.84662 C 153.20934 884.89684 153.97708 892.29749 159.53383 902.87201 C 162.21056 907.96584 164.87203 911.65392 165.44985 911.06732 C 166.02766 910.48072 169.60993 902.80091 173.40883 894.00091 C 181.4064 875.47493 182.04322 870.16649 177.37368 860.94427 C 174.44066 855.15165 172.12913 852.31032 170.19399 852.43646 z M 534.37954 960.09662 C 532.65717 960.10623 530.58038 960.22883 528.09048 960.42084 C 509.62645 961.84469 506.60347 963.11739 497.94399 973.12006 L 490.25649 982.00091 L 496.12758 982.86224 C 502.23335 983.75796 528.59668 983.05158 535.0104 981.82123 C 539.53572 980.95312 541.07574 978.24049 541.93423 969.61615 C 542.68113 962.11272 541.84311 960.05496 534.37954 960.09662 z M 678.00063 979.33295 L 674.00063 979.52631 C 667.56383 979.83643 665.15849 980.56143 656.00063 984.95404 C 651.23397 987.2404 643.82671 990.01852 639.54165 991.12787 C 635.25658 992.23723 630.54521 994.23704 629.07094 995.57123 C 625.99885 998.35143 620.73092 1007.1542 619.32094 1011.8622 C 618.38875 1014.9748 618.51135 1015.0315 624.12563 1014.1337 C 627.29485 1013.627 634.41316 1011.7008 639.94399 1009.8525 C 645.47483 1008.0043 652.70063 1004.8999 656.00063 1002.954 C 659.30063 1001.0082 663.80063 999.21068 666.00063 998.9599 C 668.20063 998.70912 671.80063 998.05297 674.00063 997.50091 C 677.9268 996.51572 678.00063 996.33848 678.00063 987.91498 L 678.00063 979.33295 z M 157.69985 1000.6376 C 154.655 1000.5919 149.6034 1001.9274 141.11391 1004.5263 C 132.06747 1007.2958 123.61409 1009.8517 122.3268 1010.206 C 117.62068 1011.5013 111.53533 1018.0782 107.86977 1025.829 C 102.14878 1037.926 101.737 1037.8534 126.66665 1029.0673 C 153.26373 1019.6936 163.1215 1013.4121 162.40493 1006.29 C 162.02529 1002.5166 161.15068 1000.6894 157.69985 1000.6376 z "
       transform="translate(-98.666647,-24.04779)" />
    <path
       id="path3"
       style="display:inline;fill:#d45500"
       d="M 149.0104 360.00092 C 141.17893 360.00092 132.00063 362.77786 132.00063 365.1474 C 132.00063 367.69053 140.26459 373.33295 143.98891 373.33295 C 146.80585 373.33295 149.13182 374.87553 153.08462 379.36615 C 158.98983 386.07483 160.9218 391.28349 158.56118 394.12787 C 155.08502 398.31636 150.66665 394.51325 150.66665 387.33295 C 150.66665 382.86778 148.4403 378.66693 146.07485 378.66693 C 144.00929 378.66693 133.47069 388.51699 130.20766 393.49701 C 128.92815 395.44979 127.98486 399.96671 127.86587 404.71576 C 127.75554 409.11892 126.44503 415.78342 124.92837 419.65131 C 121.86581 427.46153 122.42175 429.14597 127.3268 426.91107 C 129.16323 426.07434 130.66665 425.8191 130.66665 426.34271 C 130.66665 426.86632 129.72321 433.72383 128.57094 441.58099 C 127.4187 449.43818 126.66933 457.47107 126.90493 459.43256 C 127.3245 462.92574 127.53781 463.00171 137.33266 463.17084 C 150.29042 463.39459 160.75054 468.17027 167.04946 476.73724 C 169.4052 479.9412 171.63396 482.57409 172.00063 482.58685 C 172.3673 482.59965 177.87119 478.71654 184.2311 473.95795 C 197.34691 464.14447 205.04242 454.6258 207.48891 445.19427 C 210.24018 434.58785 207.01659 427.60892 197.00063 422.49701 C 194.25063 421.09347 192.00063 419.65736 192.00063 419.3056 C 192.00063 418.95383 194.20281 418.66693 196.89516 418.66693 C 200.9512 418.66693 202.76859 419.68739 207.49868 424.62396 C 217.457 435.01705 218.04802 447.75821 209.14126 460.05365 C 206.6424 463.50323 205.49196 466.39941 205.99282 467.97748 C 206.42693 469.34526 210.41719 475.16017 214.86001 480.89935 C 227.46175 497.17824 232.13652 508.1394 234.03383 525.85638 C 235.13254 536.11593 236.50997 537.59077 248.00063 540.81732 C 252.03396 541.94987 257.43396 543.85104 260.00063 545.04193 C 262.5673 546.23282 266.16483 547.42485 267.99477 547.69232 C 269.82471 547.95979 272.22341 548.96914 273.3268 549.93451 C 277.56697 553.64429 305.75205 566.57366 309.72524 566.63177 C 311.04072 566.65097 312.02006 565.91758 311.90102 565.00091 C 311.44359 561.47829 312.0928 560.15038 314.67446 559.33099 C 316.14508 558.86424 319.1487 556.96666 321.35024 555.1142 C 324.78057 552.22777 325.90695 551.93849 329.22915 553.09662 C 331.36129 553.83989 333.3574 554.19689 333.66469 553.88959 C 333.97199 553.5823 336.86611 553.22709 340.09633 553.10052 C 344.32044 552.935 347.65902 551.67007 351.98501 548.59466 C 355.29313 546.24287 360.70063 542.97363 364.00063 541.32904 C 367.30063 539.68446 370.26169 538.10145 370.58071 537.81146 C 370.89973 537.52148 368.88092 534.9503 366.09438 532.09662 C 362.91051 528.83604 361.40876 526.29 362.05337 525.24701 C 362.69765 524.20453 362.53209 523.92518 361.61001 524.49506 C 360.71078 525.05081 356.58107 519.31977 350.9518 509.70209 C 342.77406 495.73027 341.82617 493.39244 342.34048 488.48138 C 342.65835 485.44597 342.21829 481.65371 341.36196 480.05365 C 340.50563 478.45358 338.91735 473.73571 337.83266 469.57123 C 335.48415 460.55446 327.58302 447.51852 311.82876 426.66693 C 297.74128 408.02144 287.04778 396.93534 275.05923 388.54779 C 270.07718 385.0622 263.89933 380.6634 261.33266 378.7724 C 254.5482 373.77392 240.70047 369.44658 230.68032 369.19427 C 225.91459 369.07427 220.75939 368.14588 219.20571 367.12787 C 216.95512 365.65322 215.02193 365.57201 209.64321 366.72552 C 205.93511 367.52077 201.86022 367.98315 200.58852 367.75287 C 197.27566 367.15297 196.59265 370.47724 199.78383 371.66888 C 203.0977 372.90633 214.97192 386.35043 220.81899 395.48529 C 225.51758 402.82588 230.66665 416.58214 230.66665 421.79388 C 230.66665 425.40372 227.14349 429.09898 225.50258 427.2099 C 224.92445 426.54431 223.40698 422.10286 222.12954 417.33881 C 218.63275 404.29783 212.36172 393.69619 202.00063 383.31146 C 187.8669 369.14549 167.07674 360.00091 149.0104 360.00092 z M 157.03774 365.71381 C 159.50427 365.60515 166.30708 368.38336 166.86977 370.00092 C 167.7355 372.48962 161.80149 372.13917 158.55923 369.51068 C 156.78509 368.0724 155.75732 366.47084 156.27602 365.95013 C 156.42054 365.80505 156.68538 365.72933 157.03774 365.71381 z M 210.98305 370.51849 L 216.9811 371.0224 C 222.44447 371.4803 223.12257 371.93174 224.56704 376.09467 C 225.4394 378.60877 228.29857 383.66629 230.92055 387.33295 C 244.19479 405.89598 252.60092 436.30445 250.06704 456.5849 C 249.06675 464.59094 247.36617 466.01487 245.29946 460.57904 C 244.58428 458.69797 244.00063 454.57702 244.00063 451.42084 C 244.00063 428.43544 230.12338 390.4966 216.52602 376.3056 L 210.98305 370.51849 z M 232.72719 375.12787 C 234.72752 375.16217 240.4199 381.02563 244.24477 387.52826 C 259.88324 414.115 269.91618 458.19606 266.71352 486.24701 C 265.61963 495.82799 263.53224 504.00091 262.17837 504.00092 C 261.87305 504.00092 261.22977 502.43138 260.74868 500.51459 C 260.26759 498.59779 259.34459 485.24841 258.69985 470.84857 C 257.0441 433.86875 254.00091 421.03746 240.55532 394.35248 C 235.84954 385.01311 232.00063 376.79903 232.00063 376.09857 C 232.00063 375.42185 232.26558 375.11995 232.72719 375.12787 z M 251.11782 380.16107 C 251.97269 380.10177 253.00929 380.30651 254.3268 380.76849 C 257.20196 381.77667 258.32206 383.35583 259.48305 388.03607 C 260.29891 391.32499 263.78079 401.04895 267.21938 409.64349 C 277.38088 435.04164 282.66665 459.57379 282.66665 481.33295 C 282.66665 502.24408 277.70857 525.25794 271.86196 531.48138 C 268.29306 535.2803 264.58793 535.8166 265.98305 532.33295 C 266.49699 531.04962 268.48057 524.2996 270.39126 517.33295 C 273.62728 505.53391 273.8638 502.74902 273.84048 476.66693 C 273.81628 449.53083 273.68565 448.1752 269.60415 432.75287 C 265.74023 418.15276 261.60505 408.49678 251.18618 389.73138 C 248.11641 384.20242 247.67281 382.45959 248.99477 381.13763 C 249.58946 380.54294 250.26295 380.2204 251.11782 380.16107 z M 147.02798 397.47748 C 149.24128 397.50888 146.75556 404.18902 141.9186 410.77826 C 133.97625 421.59793 132.69621 421.03605 138.77798 409.40131 C 142.01648 403.20581 145.50195 397.87823 146.52212 397.56146 C 146.71213 397.50246 146.88042 397.47538 147.02798 397.47748 z M 278.26235 399.44232 C 279.26165 399.54142 280.4885 400.41621 282.45962 402.25873 C 285.70354 405.29101 287.3424 409.16219 291.10024 422.66693 C 296.54024 442.21694 299.41829 455.16616 300.58266 465.33295 C 302.11718 478.73187 297.35238 517.97778 293.0436 527.43451 C 291.62037 530.55816 289.57024 531.72163 289.10805 529.66693 C 288.98434 529.11693 288.79962 511.5669 288.6979 490.66693 C 288.55581 461.46976 287.99801 449.88709 286.28579 440.66693 C 283.61495 426.28475 279.28837 410.40193 276.65298 405.3056 C 275.0166 402.14122 275.00776 401.37786 276.59633 400.05951 C 277.14558 399.60367 277.66277 399.38288 278.26235 399.44232 z M 161.7643 408.84467 L 160.87563 413.28802 C 159.38702 420.73107 151.43983 437.94616 149.3229 438.31342 C 148.2283 438.50329 145.61178 436.21354 143.50649 433.22552 L 139.67837 427.79193 L 146.83852 421.12396 C 150.77715 417.45634 155.74629 413.19226 157.88149 411.64935 L 161.7643 408.84467 z M 300.83266 423.83881 C 302.28925 423.70192 313.9028 440.59436 316.53188 446.79779 C 317.53923 449.17468 317.75288 460.06064 317.21352 481.46576 C 316.54596 507.95826 315.97338 514.37815 313.41665 524.00091 C 311.76048 530.23424 309.71451 539.7836 308.86977 545.22357 C 307.36179 554.93479 304.90999 558.58937 303.08852 553.84271 C 302.58658 552.53467 303.50522 534.03625 305.12954 512.73334 C 309.11501 460.46389 308.83053 451.63076 302.56118 433.02045 C 301.11202 428.71869 300.28616 424.6176 300.72524 423.90717 C 300.75044 423.86637 300.78564 423.84321 300.83266 423.83881 z M 141.90493 486.70599 C 139.11611 486.78629 134.87005 487.43894 128.58462 488.64154 C 117.15434 490.82852 113.33266 493.32572 113.33266 498.61224 C 113.33266 502.29732 119.99716 514.11646 123.7018 517.00091 C 127.79632 520.18892 132.94318 518.99883 136.77016 513.98138 C 140.52275 509.06149 146.66665 493.72248 146.66665 489.2724 C 146.66665 487.44371 145.49055 486.60275 141.90493 486.70599 z M 159.21548 489.38568 C 158.69017 489.38967 157.66863 489.56276 156.06704 489.85834 C 150.59558 490.86811 149.84675 491.88258 148.67446 499.88763 C 148.18212 503.24964 146.62935 508.62697 145.22329 511.83685 C 140.75713 522.03259 142.8867 526.19658 149.15493 519.52435 C 151.33762 517.20099 152.55407 513.32763 153.81704 504.67865 C 155.07294 496.07808 156.20666 492.45196 158.09633 490.9931 C 159.58807 489.84147 160.09099 489.37902 159.21548 489.38568 z M 328.95376 493.31146 C 330.04052 493.20325 331.29762 494.39045 332.79946 496.68256 C 335.07645 500.15766 335.07243 500.32029 332.14712 523.33295 C 331.49458 528.46627 329.97758 535.33905 328.77602 538.60638 C 327.57446 541.87373 326.89025 545.32503 327.25454 546.27435 C 327.6427 547.28588 326.93926 548.00092 325.55727 548.00091 C 324.26029 548.00091 322.47361 548.7252 321.58657 549.61224 C 320.32506 550.87375 320.11957 549.93119 320.6393 545.28021 C 321.00476 542.00985 321.95516 531.83357 322.75063 522.66693 C 324.51621 502.32139 326.17646 493.58801 328.95376 493.31146 z M 123.17055 498.66693 C 126.09761 498.66693 128.22843 502.18814 127.76235 506.25287 L 127.33266 510.00092 L 124.33266 507.00092 C 121.00834 503.67658 120.31028 498.66693 123.17055 498.66693 z M 233.87563 559.39349 C 233.54534 559.41182 233.32778 559.47259 233.22329 559.57709 C 232.51178 560.2886 231.59122 564.12531 231.17837 568.10248 C 230.15538 577.95735 227.84713 585.00686 217.2311 610.69037 C 212.22439 622.80321 207.19822 636.27974 206.06313 640.63763 C 202.16394 655.60768 204.15191 669.33295 210.21743 669.33295 C 211.35332 669.33295 214.16743 667.74051 216.47329 665.79388 L 220.66665 662.25482 L 221.07094 667.69037 C 221.36991 671.70353 220.37386 675.30965 217.2643 681.46966 C 213.56144 688.805 213.11777 690.83303 213.59048 698.25677 C 213.94425 703.81279 214.8948 707.46735 216.36977 708.94232 C 218.46969 711.04223 218.82398 710.98333 221.96743 708.03021 C 223.81299 706.2964 225.71869 705.27366 226.2018 705.75677 C 226.68491 706.23988 226.11135 712.49264 224.92837 719.65131 C 223.74533 726.80997 222.40695 737.46628 221.95376 743.33295 C 220.56984 761.24799 215.23916 782.52248 193.88735 855.33295 C 184.45432 887.49993 164.70367 931.84178 149.93813 954.00091 C 145.87924 960.09224 142.43198 966.95526 141.90298 970.00091 C 140.63531 977.29924 138.70555 980.63437 130.08462 990.41888 C 126.00514 995.04896 122.66665 999.3983 122.66665 1000.0849 C 122.66665 1001.9385 131.49948 1001.5632 141.33266 999.29193 C 156.12321 995.87557 157.33266 995.1063 157.33266 989.10834 C 157.33266 985.15973 158.20099 983.06858 160.86196 980.60248 C 162.80238 978.80416 165.05238 977.32922 165.86196 977.32513 C 166.67155 977.32113 169.58188 976.69399 172.33071 975.9306 C 178.95112 974.09201 180.54178 970.53807 182.47133 953.27826 C 184.12337 938.50073 188.49256 920.27265 193.30532 908.06927 C 198.42088 895.0981 215.98235 871.96605 229.40688 860.51654 C 230.5472 859.54399 233.75138 851.37961 236.52798 842.37396 C 245.69079 812.65524 257.11958 794.5113 279.94399 773.45013 C 293.31731 761.10993 301.33266 751.38564 301.33266 747.50091 C 301.33266 746.39061 302.73542 743.85147 304.44985 741.85834 L 307.56704 738.23529 L 310.44985 741.1181 C 314.04029 744.70854 314.08309 747.81457 310.62954 754.44037 C 306.42322 762.51036 309.46422 767.83639 321.35805 773.23138 C 329.13213 776.75766 334.8625 776.79417 337.02407 773.33295 C 338.32554 771.24898 340.13306 770.66693 345.29751 770.66693 C 353.46037 770.66693 354.66665 768.89184 354.66665 756.87396 C 354.66665 745.2603 350.88688 733.85589 343.68032 723.72357 C 336.54377 713.68968 333.33266 707.67232 333.33266 704.33295 C 333.33266 699.86207 330.70324 698.58025 326.25258 700.88177 C 322.914 702.60822 321.31227 702.69239 316.78383 701.38568 C 306.55122 698.43298 265.15326 674.23788 258.84438 667.5224 C 255.86721 664.35334 255.84634 664.16257 258.07485 659.80365 C 259.33159 657.34548 262.9831 651.25963 266.18813 646.28021 L 272.01626 637.22552 L 266.00844 612.77045 C 262.70421 599.31946 260.00063 585.5434 260.00063 582.15716 C 260.00063 576.49141 260.26318 576.00091 263.30727 576.00091 C 265.68866 576.00091 266.76771 576.84122 267.15688 579.00091 C 267.4542 580.65091 268.62881 588.00489 269.76821 595.34466 C 271.9982 609.7098 278.04295 630.66693 279.95571 630.66693 C 280.6005 630.66693 286.12447 625.83863 292.2311 619.93646 C 298.33772 614.03429 304.98396 608.20399 307.00063 606.98138 C 311.22709 604.4191 311.53128 602.55833 308.48501 597.90912 C 306.83685 595.39372 306.48872 592.77093 307.06508 587.18646 C 307.82119 579.86045 307.78972 579.77672 303.58071 578.06341 C 301.24447 577.11244 294.5333 575.3251 288.66665 574.09271 C 282.79998 572.86033 268.21642 568.79888 256.25844 565.06732 C 243.96484 561.23104 236.18764 559.26523 233.87563 559.39349 z M 539.62954 588.28607 L 558.95376 607.14349 C 577.81274 625.54612 585.49934 635.11377 592.31704 648.66693 C 596.74893 657.47725 604.89397 679.4053 607.47133 689.46576 C 609.34282 696.77089 609.33688 697.79636 607.40102 700.75091 C 604.77106 704.76474 602.89538 704.79842 582.14907 701.20013 C 560.54859 697.45369 532.95402 698.2067 506.00063 703.28021 C 480.63023 708.05575 481.32805 707.83374 481.36001 711.14545 C 481.37521 712.71594 482.86984 721.20092 484.68032 730.00091 C 486.49079 738.80091 487.97926 748.86957 487.98696 752.37591 C 487.99696 756.72274 488.61977 758.98811 489.94594 759.49701 C 492.68078 760.54647 500.57289 757.71799 503.29165 754.71381 C 505.4468 752.33238 505.41861 751.5881 502.78579 741.1767 C 499.80158 729.37574 499.16919 719.33636 501.3268 718.00287 C 503.04171 716.943 504.78823 721.1425 507.28579 732.33295 C 509.90693 744.07702 515.36307 754.68255 525.02993 766.82709 C 538.34756 783.55811 557.46699 799.24118 576.00063 808.63763 C 580.7673 811.0543 586.15985 814.24149 587.98501 815.71966 L 591.30337 818.40716 L 588.34048 823.67865 C 586.71094 826.57802 584.7568 833.38553 583.99673 838.80756 C 581.81126 854.39757 578.21516 860.10393 557.35024 881.08295 C 538.0802 900.45839 525.34471 917.45738 525.32094 923.83685 C 525.30314 928.61846 519.90264 939.83335 514.84243 945.59662 C 508.59785 952.7088 509.21015 953.75372 519.00063 952.69232 C 523.58396 952.19544 529.597 951.20885 532.36391 950.50091 C 535.13083 949.79298 537.98607 949.57838 538.70766 950.02435 C 539.42925 950.47032 540.37675 949.901 540.81508 948.75873 C 541.25341 947.61646 542.14232 947.00903 542.78969 947.40912 C 543.43706 947.80922 544.93285 945.72219 546.11391 942.77045 C 547.87092 938.37925 549.56363 936.78709 555.42837 934.01263 C 563.20031 930.33592 565.33266 927.65804 565.33266 921.57513 C 565.33266 916.27719 574.09663 899.09994 583.58266 885.8056 C 592.5944 873.17597 623.70494 837.33295 625.65493 837.33295 C 626.38468 837.33295 628.95288 835.60244 631.36196 833.48724 C 633.77104 831.37205 636.42178 829.41457 637.25258 829.13763 C 639.45854 828.40231 642.54037 818.85429 642.60805 812.54584 C 642.70245 803.74553 639.52134 795.65289 630.22719 781.04974 C 615.84588 758.45355 615.65061 756.52735 625.92251 738.54779 C 635.66894 721.48801 639.61937 709.24637 640.72719 692.66693 C 641.88688 675.31132 639.78225 660.5233 634.55727 649.33295 C 624.84049 628.52247 610.65129 609.99125 599.50063 603.54584 C 591.13157 598.70827 578.56518 595.04901 558.14712 591.50287 L 539.62954 588.28607 z M 651.44399 628.1767 C 645.0486 628.2085 638.33373 628.54516 636.12563 629.16302 C 631.41773 630.48038 629.74915 633.79534 631.83266 637.68841 C 634.23464 642.17654 639.5914 644.99711 651.48891 648.03998 C 677.16449 654.60668 695.02073 673.86829 696.87954 697.00677 C 697.27686 701.95254 696.64277 718.63414 695.47133 734.07513 C 693.25252 763.322 693.64203 772.61641 697.76235 788.66693 C 700.74241 800.27561 701.78605 808.89622 700.32094 809.8017 C 698.43932 810.96462 693.84245 805.48854 690.66079 798.29584 C 686.29827 788.43366 684.36752 764.75439 686.53383 747.67865 C 687.48821 740.15581 688.56075 731.54178 688.9186 728.53607 C 689.43311 724.21448 685.16728 693.07382 681.98305 677.90912 C 681.19427 674.15258 669.4013 662.7907 662.41079 659.0517 C 658.8323 657.13767 654.4655 656.01274 650.68813 656.03412 L 644.66665 656.06732 L 652.78579 660.00677 C 665.13389 665.99705 672.40247 673.57723 675.79751 684.00091 C 681.65326 701.97969 682.99165 731.37949 679.28774 760.66693 C 678.17483 769.46692 677.19138 782.36629 677.10024 789.33295 C 676.95529 800.41229 677.441 803.35823 680.98305 812.84271 C 686.30531 827.094 694.99027 841.78692 702.56313 849.34857 C 708.46568 855.24239 729.15398 866.88621 746.66665 874.17084 C 756.06341 878.07954 756.46787 878.05581 755.37954 873.66693 C 753.38739 865.63329 745.97767 852.65568 742.4186 850.96771 C 736.73039 848.26995 728.67569 838.12622 722.2604 825.58295 C 708.39422 798.47159 704.22854 776.84684 701.35805 717.04779 C 699.52955 678.95567 697.83229 672.78871 685.57485 659.68451 C 678.91673 652.56644 674.12616 649.70125 662.66665 645.9892 C 658.63331 644.68269 650.23396 641.1884 644.00063 638.22357 C 633.77889 633.3617 633.05553 632.78103 636.62758 632.29974 C 643.31228 631.39905 654.27708 633.35751 660.28579 636.52631 C 669.93552 641.61528 695.16327 657.39259 698.26626 660.27826 C 706.59318 668.02199 708.69719 679.49153 711.30337 731.33295 C 713.46496 774.33115 714.75566 785.95621 718.77993 798.66693 C 721.2743 806.54539 734.23097 832.87198 737.67641 837.06341 C 739.63764 839.44926 741.32945 836.6032 740.64907 832.06341 C 740.36913 830.19555 739.44138 821.46692 738.58657 812.66693 C 737.07335 797.08892 737.12954 796.26172 740.70962 781.34466 C 742.73199 772.91804 746.15999 760.91868 748.32876 754.67865 C 757.14876 729.30159 753.47926 686.65182 740.58266 664.64545 C 735.11636 655.3179 723.75993 645.67287 711.4479 639.90326 C 701.05633 635.0336 693.33266 633.2483 693.33266 635.71576 C 693.33266 636.29255 697.68397 639.59932 703.00063 643.06341 C 718.75894 653.33083 727.25801 662.48301 734.54751 677.03412 C 744.21415 696.33044 744.51592 705.46499 736.76821 744.23724 C 734.22985 756.94011 731.96828 769.43425 731.74282 772.00091 L 731.33266 776.66693 L 729.39321 773.33295 C 726.45549 768.28719 726.03338 745.99115 728.53579 728.05365 C 729.7082 719.64977 730.66665 709.12564 730.66665 704.66693 C 730.66665 679.28457 716.4212 658.45941 690.98305 646.65326 C 671.68347 637.69609 667.3567 635.16262 666.84633 632.5224 C 666.57816 631.13516 665.67816 629.55922 664.84633 629.02045 C 663.91647 628.41818 657.83939 628.14489 651.44399 628.1767 z M 203.59243 700.00091 C 202.5672 700.00091 195.09229 703.25641 186.9811 707.23724 C 178.86992 711.21807 164.42971 717.56709 154.89321 721.34466 C 145.3567 725.12224 136.53525 729.33943 135.28969 730.71576 C 133.16645 733.06192 133.16037 734.57423 135.19399 754.94232 C 136.38698 766.89089 137.94939 792.99034 138.66665 812.94037 C 139.68048 841.13924 140.46434 850.48799 142.18423 854.94037 C 143.65568 858.74963 144.29787 863.89566 144.10415 870.30951 C 143.94396 875.61323 144.21158 880.59685 144.6979 881.38373 C 146.34268 884.04503 149.91246 882.00355 152.96743 876.65521 C 156.33552 870.75868 160.53024 858.23384 161.90883 849.95404 C 162.65248 845.48775 162.2275 843.72364 159.40298 839.56146 C 155.16795 833.3208 155.1575 830.5636 159.33266 818.12591 C 163.35255 806.1509 163.45427 801.36185 159.99087 786.91498 C 156.85476 773.8334 156.65541 767.84346 159.19594 762.9306 C 162.87201 755.82188 165.65891 754.46074 177.57094 753.95599 C 183.67357 753.6974 194.66731 752.05473 202.00063 750.3056 L 215.33266 747.12591 L 215.74477 739.97943 C 216.49491 726.95846 208.30064 700.00091 203.59243 700.00091 z M 452.28188 714.1474 C 449.57452 714.09354 442.20288 714.99325 434.53188 716.34857 C 415.60974 719.69175 416.76719 717.98465 416.70766 742.66693 C 416.66686 759.57196 417.9251 765.72276 422.52993 771.1142 C 424.93963 773.93551 429.55968 773.63738 453.33266 769.12787 C 461.03265 767.66725 467.85114 765.96977 468.48305 765.35443 C 469.66758 764.20098 461.3166 728.67586 457.78774 719.85638 C 456.68572 717.10216 454.63655 714.6219 453.14321 714.23138 C 452.95952 714.18335 452.66865 714.15509 452.28188 714.1474 z M 651.54751 822.81927 C 649.89859 822.83704 648.83934 823.79458 648.11782 825.69232 C 647.01594 828.59049 639.52464 836.10075 631.58657 842.26654 L 627.84048 845.1767 L 635.02016 855.65912 C 647.95851 874.55122 655.77986 897.82397 656.97719 920.99506 C 658.06871 942.11846 652.82387 962.22902 643.79555 971.54388 C 639.60829 975.86405 639.25914 981.08126 643.2604 979.54584 C 644.30835 979.1437 647.75411 978.11736 650.91665 977.26654 C 654.07917 976.41572 658.39316 974.82913 660.50258 973.7392 C 662.61201 972.64927 666.48275 971.49207 669.10415 971.16693 C 671.72553 970.8418 674.0904 970.35451 674.36001 970.0849 C 674.62962 969.81529 674.23614 966.27823 673.48696 962.22552 C 672.58922 957.36918 672.55067 949.71138 673.37368 939.76263 C 675.24433 917.14968 674.92649 842.8345 672.94008 838.47162 C 671.21743 834.68801 666.26215 830.26125 658.50844 825.57904 C 655.43355 823.72221 653.19642 822.80151 651.54751 822.81927 z "
       transform="translate(-98.666647,-24.04779)" />
    <path
       style="fill:#00ffff"
       d="m 151.42913,428.33337 c 2.73621,-4.17599 2.7393,-4.72107 0.029,-5.11886 -2.70813,-0.39746 -6.61527,4.25094 -5.66171,6.73586 1.15841,3.01878 2.92807,2.51075 5.63268,-1.617 z"
       id="path4"
       transform="translate(-98.666647,-24.04779)" />
    <path
       id="path5"
       style="display:inline;fill:#008080"
       d="M 530.17837 594.64154 C 528.67277 594.50696 528.00063 595.70696 528.00063 598.16107 C 528.00063 603.09116 509.77603 621.04043 500.00063 625.73724 C 495.96731 627.67515 485.46664 631.31458 476.66665 633.82513 C 463.72814 637.51637 460.59015 638.88788 460.26626 640.99896 C 459.47344 646.16644 465.14934 669.00115 471.36977 685.66693 C 478.58403 704.99535 477.73312 704.40718 492.00063 699.88373 C 517.719 691.72984 554.13911 690.01334 595.33266 695.01068 C 597.66584 695.29373 597.94727 694.67107 597.5729 690.03802 C 596.1976 673.01792 570.9644 632.76343 545.40102 606.80756 C 537.51209 598.79749 532.68769 594.86584 530.17837 594.64154 z M 325.72719 600.39935 C 323.50474 600.27087 317.99803 604.09135 310.02602 611.33295 C 307.60413 613.53294 301.88209 618.33425 297.30923 622.00091 C 281.89332 634.36185 263.98204 657.22064 265.86587 662.12982 C 267.40863 666.15021 293.37148 681.04998 309.99087 687.45209 C 319.79191 691.22763 320.00063 691.24478 320.00063 688.27826 C 320.00063 686.96416 316.9002 680.5135 313.11196 673.94427 C 302.94295 656.31012 300.93602 650.35552 301.66079 639.9599 C 302.16854 632.67717 303.20798 629.67728 308.0104 621.62591 C 311.16834 616.33153 314.10878 611.99998 314.5436 611.99896 C 316.06526 611.99496 327.21353 601.43647 326.47524 600.69818 C 326.29415 600.51709 326.04469 600.41771 325.72719 600.39935 z M 381.89907 646.82513 C 380.55352 646.86874 379.10538 647.62935 377.31508 649.07904 C 374.39358 651.44474 374.3809 651.58174 376.66079 656.07904 C 377.93976 658.60193 384.20753 668.16629 390.58852 677.33295 C 396.96953 686.4996 403.59257 696.39961 405.30727 699.33295 C 411.08174 709.21131 414.72833 713.33295 417.69008 713.33295 C 419.27781 713.33295 426.59548 712.06895 433.95376 710.52435 C 441.31202 708.97975 448.61608 706.91008 450.18423 705.92474 C 452.93144 704.19854 452.97191 703.82713 451.27212 695.73334 C 449.13281 685.54678 443.07077 666.0438 440.46938 660.97748 C 438.80442 657.7349 438.21837 657.47092 435.62173 658.79584 C 433.99693 659.62488 429.25296 663.62986 425.08071 667.69623 L 417.49477 675.09076 L 409.92055 670.54584 C 402.56504 666.13219 393.01318 657.64975 387.10024 650.28021 C 385.19021 647.89966 383.62906 646.76907 381.89907 646.82513 z "
       transform="translate(-98.666647,-24.04779)" />
    <path
       id="path6"
       style="display:inline;fill:#ffcc00"
       d="M 129.3893 468.48138 C 127.33697 468.46631 126.11786 468.92572 124.60805 469.91498 C 121.54239 471.92369 117.4379 481.88153 119.02212 483.46576 C 119.45225 483.89588 125.22066 483.48076 131.84048 482.54388 C 142.25373 481.07005 145.00658 481.12426 152.27016 482.93842 C 162.98831 485.61538 162.66665 485.58518 162.66665 483.91302 C 162.66665 478.41597 151.01158 471.99895 136.21938 469.35248 C 133.08555 468.7918 130.98556 468.4931 129.3893 468.48138 z M 161.02407 494.66693 C 158.26767 494.66693 156.66366 497.66634 157.81508 500.66693 C 158.88772 503.46217 163.63855 503.16514 165.22329 500.20404 C 166.77764 497.29971 164.78079 494.66693 161.02407 494.66693 z M 169.12758 508.17865 C 168.30941 508.2454 168.00063 508.79329 168.00063 509.75092 C 168.00063 517.51244 219.50287 546.59591 254.55727 558.62982 C 268.66602 563.47325 289.95632 569.19142 294.00063 569.22357 C 296.56802 569.24397 296.55743 569.15324 293.7311 566.79388 C 292.11651 565.44608 284.61715 562.09384 277.06508 559.34466 C 247.37403 548.53623 209.99316 530.91035 184.06899 515.4931 C 175.1939 510.21504 170.92756 508.03179 169.12758 508.17865 z M 504.54946 557.33295 C 499.48743 557.33295 498.77417 558.74355 499.56313 567.19232 C 500.33534 575.46178 497.85455 584.00091 494.68032 584.00091 C 492.55557 584.00091 475.9991 600.18691 471.63344 606.53216 C 469.35927 609.83758 465.25807 616.61998 462.51821 621.60443 C 456.71436 632.16306 456.95674 632.33186 471.52602 627.8642 C 485.19479 623.67267 503.73524 613.85754 514.72719 604.99506 C 521.55976 599.48615 523.53391 588.49099 518.77602 582.44232 C 517.36966 580.65442 515.78538 576.82299 515.25454 573.92865 C 514.19891 568.17297 507.20631 557.33295 504.54946 557.33295 z M 363.62173 761.70404 C 363.58981 761.70739 363.55888 761.71369 363.52993 761.72357 C 362.57059 762.05093 362.01618 765.68202 362.0436 771.45599 C 362.0977 782.84327 363.47549 789.95232 366.14712 792.62396 C 368.69552 795.17237 376.48783 795.29242 378.5436 792.81537 C 379.72478 791.39214 379.42925 789.31323 377.2643 783.81537 C 373.4437 774.113 365.63228 761.49296 363.62173 761.70404 z "
       transform="translate(-98.666647,-24.04779)" />
    <path
       id="path7"
       style="fill:#803300"
       d="M 361.56899 685.54388 C 360.43136 685.54527 359.45224 685.59324 358.71352 685.69232 C 353.52467 686.38829 336.00063 693.76923 336.00063 695.25873 C 336.00063 695.66089 340.00277 700.34137 344.89516 705.66107 C 359.86498 721.93837 373.43357 744.06554 380.48501 763.70209 C 386.51428 780.49215 388.17903 782.64938 397.25454 785.40326 C 404.40543 787.57314 410.63696 786.81772 414.09243 783.36224 C 417.97678 779.4779 417.55852 775.44468 412.48305 767.88373 C 407.95915 761.14444 406.87842 756.46283 405.28774 736.7099 C 403.64506 716.31122 401.33693 704.2693 397.25063 694.77045 C 393.8293 686.81737 390.70838 684.50361 386.46548 686.77435 C 384.28825 687.93956 381.25088 687.90685 373.84243 686.63959 C 369.81783 685.95116 364.98189 685.53973 361.56899 685.54388 z M 346.69204 777.35443 C 344.07102 777.33826 341.45633 778.42219 339.27212 780.60638 C 335.47959 784.39891 335.15438 786.96522 338.09438 789.90521 C 340.6057 792.41654 348.70466 792.61579 353.32094 790.28021 C 357.86981 787.97874 358.15526 784.70047 354.15298 780.69818 C 351.94165 778.48686 349.31306 777.3706 346.69204 777.35443 z "
       transform="translate(-98.666647,-24.04779)" />
    <path
       style="fill:#ff0000"
       d="m 337.35356,684.77783 c 9.67431,-6.65475 18.20354,-9.11943 28.98585,-8.376 4.94666,0.34107 10.64392,1.06014 12.66059,1.59794 4.88716,1.3033 4.84184,-1.28965 -0.12868,-7.36259 C 373.24995,663.76903 372,660.80083 372,654.32012 c 0,-4.52162 0.75921,-6.56847 3.33333,-8.98674 5.48407,-5.15201 4.13306,-11.82849 -4.78406,-23.64205 -6.54119,-8.66591 -17.47067,-17.03961 -26.59177,-20.37348 l -6.94145,-2.53719 -11.44935,12.03771 c -16.58447,17.43672 -18.23337,20.15471 -18.23337,30.05539 0,7.26275 0.81223,9.81311 7.05912,22.16552 7.30094,14.43663 14.3405,26.29411 15.61033,26.29411 0.40049,0 3.70835,-2.05 7.35078,-4.55556 z"
       id="path8"
       transform="translate(-98.666647,-24.04779)" />
    <path
       id="path9"
       style="fill:#0000ff"
       d="M 492.79165 412.06537 C 491.49338 412.08213 489.90344 412.17238 487.90493 412.31537 C 480.44572 412.84908 476.30904 414.18983 464.88344 419.77045 C 449.46939 427.29916 431.70015 439.96185 425.41665 447.89545 C 423.17121 450.73052 421.32361 453.56451 421.31118 454.19232 C 421.29878 454.82012 418.59874 458.20118 415.31118 461.70599 C 411.21583 466.07198 409.34189 469.22061 409.36196 471.70599 C 409.39486 475.78168 413.60828 485.85415 415.86196 487.24701 C 416.76347 487.80416 417.33266 492.91618 417.33266 500.43256 C 417.33266 510.13314 417.88909 513.74246 419.98305 517.64935 L 422.63149 522.59271 L 418.6979 521.8056 C 413.33059 520.73214 408.97187 522.02056 404.10219 526.1181 C 399.6447 529.86885 398.75188 534.63673 402.00063 537.33295 C 403.94367 538.94551 404.7922 542.66693 403.21743 542.66693 C 402.78731 542.66693 399.82363 540.79138 396.63149 538.49896 L 390.82876 534.33099 L 381.18813 539.62982 C 372.22153 544.55958 370.32865 546.71279 370.60219 551.66693 C 371.30096 564.32239 371.25851 567.67349 370.37173 569.5849 C 368.5659 573.47724 370.96728 573.15959 384.00063 567.77435 C 390.96728 564.89582 400.58096 562.00203 405.36391 561.34466 C 410.14688 560.68731 415.09688 559.75079 416.36391 559.26459 C 417.88087 558.68247 418.66665 559.02812 418.66665 560.27631 C 418.66665 561.9815 387.43158 574.16051 357.33266 584.19037 C 352.56602 585.77877 348.17969 587.89696 347.58462 588.89935 C 346.98955 589.90173 345.98197 590.40082 345.34438 590.00677 C 344.70679 589.61272 343.86549 589.80699 343.47524 590.43841 C 343.08499 591.06985 347.82979 595.02644 354.02016 599.23138 C 366.51487 607.71872 370.10243 611.73897 379.09829 627.33295 C 391.29304 648.47206 403.99114 661.33295 412.66665 661.33295 C 415.25308 661.33295 419.02313 659.8201 422.24087 657.4892 C 425.16022 655.37442 428.51575 651.60539 429.6979 649.1142 C 431.99618 644.27091 431.75978 642.01297 427.08852 624.20795 L 424.86977 615.75091 L 417.43423 616.62201 C 413.34497 617.10082 408.79933 617.83621 407.33266 618.25677 L 404.66665 619.02045 L 407.33266 615.98334 C 408.79933 614.31274 412.54429 611.80683 415.65493 610.41498 C 422.06091 607.54862 422.15245 607.30745 423.27798 590.00091 C 424.09188 577.48586 427.17818 563.87555 430.22329 559.37006 C 431.20092 557.92356 432.00063 555.38663 432.00063 553.73138 C 432.00063 551.56765 433.48368 549.96299 437.27993 548.02631 C 443.9868 544.60471 449.3824 544.60603 453.73305 548.02826 L 457.15883 550.72357 L 454.34829 557.02826 C 452.25535 561.72529 451.38578 566.96441 450.93618 577.56732 C 449.9719 600.30765 451.60591 604.13632 461.36391 601.9931 C 464.04893 601.40337 465.59393 600.09189 466.13344 597.94232 C 466.57232 596.19368 468.07021 594.4015 469.46157 593.9599 C 470.85294 593.5183 473.54842 590.49882 475.4518 587.25091 C 477.90247 583.06918 480.11944 581.0336 483.04946 580.27435 C 486.06805 579.49216 488.01879 577.6305 490.2604 573.39154 C 494.09992 566.13088 494.14145 560.40708 490.50844 539.54779 C 487.05771 519.73492 487.65308 503.76447 492.71157 480.42474 C 503.77417 429.38217 504.84102 419.50733 499.83266 414.49896 C 497.96421 412.63052 496.68645 412.01508 492.79165 412.06537 z M 487.63735 445.60248 C 491.3275 445.31314 491.92494 461.02347 488.08266 468.19232 C 486.6617 470.84353 483.94502 480.43552 482.04555 489.50677 C 477.0944 513.15199 475.77166 516.66061 472.8893 513.77826 C 471.0769 511.96583 472.08529 503.72691 474.76235 498.47943 C 476.40144 495.26655 477.99416 488.51736 478.67837 481.88568 C 479.42238 474.67445 481.10512 467.87136 483.42055 462.71185 C 485.92039 457.14148 486.7688 453.50981 486.21548 450.7431 C 485.76172 448.47432 486.03823 446.38966 486.86001 445.88177 C 487.13311 445.71299 487.39134 445.62177 487.63735 445.60248 z M 456.11977 609.33295 C 452.61689 609.33295 451.55586 611.34516 453.31899 614.63959 C 455.03479 617.84559 456.42828 618.03113 458.65298 615.35052 C 460.83576 612.72043 459.40934 609.33295 456.11977 609.33295 z "
       transform="translate(-98.666647,-24.04779)" />
    <path
       style="fill:#000080"
       d="m 426.08601,441.45704 c 6.83257,-6.53199 16.25134,-14.60828 20.93059,-17.94733 11.00375,-7.85211 29.8374,-16.86439 37.20291,-17.80233 9.82062,-1.25059 10.61697,-2.08439 8.3191,-8.71039 -3.17725,-9.1617 -10.36231,-21.61489 -12.72731,-22.05906 -1.26761,-0.23807 -7.21469,4.28116 -14.1314,10.73855 -8.18237,7.63899 -15.4393,12.96875 -23.0478,16.92712 -19.26214,10.02127 -25.43767,17.68795 -29.79794,36.99297 -2.56218,11.34403 -2.67876,13.7368 -0.66925,13.7368 0.82403,0 7.08853,-5.34435 13.9211,-11.87633 z"
       id="path10"
       transform="translate(-98.666647,-24.04779)" />
    <path
       id="path11"
       style="display:inline;fill:#ffcc00"
       d="m 371.97915,480.03607 c -3.08659,0.0414 -5.75467,0.90966 -7.23633,2.54688 -3.5546,3.92778 -1.42079,5.41797 7.76172,5.41797 7.28086,0 8.72432,0.43191 11.29687,3.39062 1.6222,1.86569 2.57423,3.99953 2.11524,4.74219 -0.8497,1.37483 0.30769,7.86718 1.40234,7.86719 0.33039,0 2.77302,-1.22269 5.42969,-2.71485 3.30281,-1.85508 6.4178,-2.52902 9.84961,-2.13476 7.06619,0.81179 8.61153,-0.50793 7.5039,-6.41211 -1.56599,-8.34749 -4.62682,-10.20309 -16.48632,-9.99024 -5.65538,0.1015 -11.97076,-0.47437 -14.03516,-1.28125 -2.54642,-0.99527 -5.20088,-1.4638 -7.60156,-1.43164 z m -18.66992,6.63086 c -5.85432,0 -6.24704,6.66474 -0.92579,15.68359 2.74277,4.64866 5.86687,5.14706 5.26368,0.83985 -0.19434,-1.38774 -0.72925,-5.67343 -1.1875,-9.52344 -0.64741,-5.43915 -1.35014,-7 -3.15039,-7 z m 12.0996,62.0293 c -0.12701,-0.0124 -0.27071,0.0312 -0.42968,0.12304 -0.90532,0.52325 -4.77735,2.99881 -8.60547,5.50196 -3.82813,2.50315 -7.52351,4.20414 -8.21094,3.77929 -1.60328,-0.99087 -18.45944,-1.12365 -22.82812,-0.17968 -4.22915,0.91383 -9.76393,4.99803 -9.14258,6.74609 0.54193,1.52462 4.15028,1.55018 9.47461,0.0664 2.90372,-0.80919 3.66601,-0.57527 3.66601,1.12304 0,1.1795 -0.85274,2.14453 -1.89648,2.14453 -5.52582,0 -15.33631,13.51621 -15.40625,21.22657 -0.0264,2.90878 3.25939,8.10547 5.125,8.10547 0.40741,0 4.23493,-1.35001 8.50781,-3 8.86652,-3.42386 20.14022,-12.89097 18.97266,-15.9336 -0.90569,-2.36017 2.63951,-5.67112 4.70508,-4.39453 1.01326,0.62624 1.03292,1.40805 0.0684,2.57031 -2.25149,2.71289 -0.0293,3.46886 4.02735,1.3711 2.0706,-1.07075 4.97388,-1.94531 6.45117,-1.94532 3.96979,0 5.38844,-3.87675 6.09961,-16.66015 0.43148,-7.75591 0.31099,-10.55791 -0.57813,-10.64453 z"
       transform="translate(-98.666647,-24.04779)" />
    <path
       style="fill:#f2f2f2"
       d="m 422.40642,406.85705 c 29.31203,-12.5092 43.36494,-22.01076 47.37427,-32.03104 2.86084,-7.14994 6.84678,-28.60098 5.81441,-31.29129 -2.1921,-5.71251 -6.76815,-0.62048 -10.35313,11.52053 -3.07966,10.42965 -6.82492,16.29882 -13.79139,21.61241 l -4.47243,3.41129 -9.82241,-5.35404 c -6.06908,-3.30816 -11.59405,-5.36121 -14.45877,-5.37279 l -4.63636,-0.0188 3.57453,3.57454 3.57454,3.57454 -2.86287,1.4273 c -3.5354,1.76259 -13.05404,20.50085 -14.00122,27.56261 -0.62578,4.66556 -0.39993,5.19435 2.2186,5.19435 1.60342,0 6.93242,-1.71434 11.84223,-3.80965 z"
       id="path12"
       transform="translate(-98.666647,-24.04779)" />
    <path
       id="path13"
       style="fill:#fff6d5"
       d="M 428.03579 331.03998 C 426.87319 331.09391 426.65487 332.59756 426.62563 337.57709 C 426.59543 342.72736 425.6857 346.12663 423.29946 350.00092 C 418.47152 357.83953 418.95131 359.55395 427.00063 363.22943 C 430.85063 364.98741 435.80063 367.95793 438.00063 369.83099 C 443.06302 374.14107 446.67393 374.20273 451.15298 370.0517 C 455.11949 366.37565 457.33266 361.49865 457.33266 356.44037 C 457.33266 354.57794 458.83647 350.06264 460.67251 346.40717 C 462.50854 342.75169 463.69374 339.24927 463.30727 338.62396 C 462.9208 337.99864 459.76765 337.08764 456.30141 336.59857 C 449.21563 335.5988 432.558 332.31093 429.00063 331.2099 C 428.62245 331.09285 428.30408 331.02753 428.03579 331.03998 z M 437.17055 340.37787 C 437.60773 340.3569 438.20125 340.48857 439.00063 340.73138 C 441.98653 341.63837 450.66665 347.59405 450.66665 348.73529 C 450.66665 349.91223 440.6214 349.22655 438.33266 347.89349 C 437.04933 347.14602 436.00063 345.023 436.00063 343.1767 C 436.00063 341.20881 436.20876 340.42399 437.17055 340.37787 z "
       transform="translate(-98.666647,-24.04779)" />
    <path
       style="fill:#008000"
       d="m 489.42204,367.22647 c 1.4346,-1.72858 1.43918,-2.86578 0.0255,-6.33333 -2.14353,-5.25784 -1.90881,-12.82661 0.4814,-15.52301 C 492.05677,342.96974 496,333.78179 496,331.22427 c 0,-0.98089 -2.4,-4.00399 -5.33333,-6.71801 -6.5466,-6.05715 -7.06382,-9.09819 -1.33334,-7.83957 5.4602,1.19926 5.15914,-0.82909 -1.33333,-8.98329 -5.7096,-7.17096 -7.09095,-11.39713 -3,-9.17836 4.05721,2.20046 9.33232,8.56025 13.95821,16.82832 4.95468,8.85573 8.02696,10.32887 13.05315,6.25891 l 3.12944,-2.53406 -2.64433,-4.52909 c -5.65389,-9.68377 -30.90918,-26.00139 -45.19995,-29.20402 -8.47165,-1.89853 -16.62985,-0.61775 -16.62985,2.61078 0,1.30248 2.42424,4.04814 5.3872,6.10147 9.53975,6.61106 16.62492,16.62934 11.76067,16.62934 -0.83534,0 -5.36979,-3.38098 -10.07655,-7.51329 -7.99016,-7.01496 -20.67624,-13.7158 -26.10432,-13.7884 -3.12813,-0.0418 -4.40348,3.69074 -6.16288,18.03684 -2.48178,20.23633 -2.98579,19.01134 7.52921,18.29965 14.769,-0.99963 46.50982,7.36236 50.14612,13.21078 1.01629,1.63455 0.77821,4.20607 -0.87496,9.45052 -2.58672,8.20602 -2.89842,14.64051 -0.89091,18.39156 1.6698,3.12007 5.65025,3.35375 8.04179,0.47212 z"
       id="path14"
       transform="translate(-98.666647,-24.04779)" />
    <path
       style="fill:#800000"
       d="m 483.18856,782.63975 c 2.61639,-6.53901 2.64693,-7.84342 0.29892,-12.76817 -1.05427,-2.21126 -2.20384,-10.73295 -2.68065,-19.87152 -1.05842,-20.28583 -3.96616,-33.24679 -14.87662,-66.31103 -4.81566,-14.5939 -11.29797,-36.54416 -14.40513,-48.77834 -5.33375,-21.00118 -5.83653,-22.26617 -8.99889,-22.64126 -1.84222,-0.21851 -5.02703,0.24051 -7.07736,1.02004 -3.20014,1.21669 -3.60467,1.93354 -2.85767,5.06395 2.22612,9.32888 21.6748,73.52038 30.79681,101.64664 9.37956,28.92039 10.23734,32.51413 11.13875,46.66667 1.32114,20.74257 4.44701,26.5069 8.66184,15.97302 z"
       id="path15"
       transform="translate(-98.666647,-24.04779)" />
    <path
       id="path16"
       style="fill:#FF00FF"
       d="M 448.07094 550.97357 C 445.49876 550.93264 438.66665 557.42701 438.66665 560.1181 C 438.66665 564.0884 443.30053 563.2166 447.27016 558.49896 C 450.75496 554.35752 451.12827 551.93148 448.4186 551.02826 C 448.31402 550.9934 448.19744 550.97558 448.07094 550.97357 z M 443.66665 566.69623 C 438.75799 566.74473 430.46103 575.35 432.93618 577.82513 C 434.3406 579.22956 435.37566 578.83003 441.13344 574.65912 C 447.24672 570.23068 448.3857 566.64959 443.66665 566.69623 z M 442.13344 578.66107 C 437.4526 578.5708 429.33266 585.94441 429.33266 591.86615 C 429.33266 595.3233 429.84933 596.00091 432.48696 596.00091 C 434.22139 596.00091 437.17813 594.79154 439.05727 593.31341 C 442.6578 590.48124 446.10729 582.33203 444.68227 580.02631 C 444.11036 579.10093 443.21364 578.6819 442.13344 578.66107 z M 443.3561 594.66693 C 441.61406 594.66693 435.05295 598.59411 433.33266 600.66693 C 431.70197 602.63178 432.1003 602.80146 437.43032 602.42084 C 442.75583 602.04054 443.37393 601.64082 443.75454 598.33295 C 443.98658 596.31628 443.80795 594.66693 443.3561 594.66693 z "
       transform="translate(-98.666647,-24.04779)" />
    <path
       id="path17"
       style="fill:#e9c6af"
       d="M 368.66665 188.66693 L 367.7643 200.00091 C 365.91608 223.22613 364.00946 323.12506 364.00454 397.00092 L 364.00063 473.33295 L 372.00063 473.33295 L 380.00063 473.33295 L 380.01626 415.00092 C 380.02526 382.91762 380.59588 328.7669 381.28579 294.66693 C 381.97571 260.56696 382.71821 222.76692 382.93618 210.66693 L 383.33266 188.66693 L 376.00063 188.66693 L 368.66665 188.66693 z M 376.35415 492.53217 C 375.31445 492.49898 373.74865 492.92661 372.11196 493.7431 C 369.84994 494.87154 368.00063 495.2425 368.00063 494.56537 C 368.00063 493.88824 367.31267 493.33295 366.47329 493.33295 C 365.37471 493.33295 365.24153 495.85436 365.99477 502.33295 C 366.57028 507.28294 367.19702 513.9318 367.3893 517.10834 C 367.62043 520.92646 368.76563 523.9767 370.76821 526.10834 C 374.43863 530.01532 374.93465 530.0542 377.99477 526.67279 C 380.14061 524.30166 380.30192 522.38408 379.49087 509.03021 C 378.99039 500.79001 378.05094 493.51802 377.40298 492.87006 C 377.18987 492.65694 376.82674 492.54725 376.35415 492.53217 z "
       transform="translate(-98.666647,-24.04779)" />
    <path
       id="path18"
       style="fill:#FF00FF"
       d="M 375.96548 40.666931 C 374.84792 40.666931 372.85827 45.204775 370.70376 52.666931 C 368.79817 59.266924 365.06107 70.366286 362.39907 77.332946 C 355.33876 95.810388 355.41629 95.197519 359.25454 101.74701 C 363.44556 108.89845 363.56789 112.55022 359.70376 115.25677 C 354.31797 119.02912 347.74395 117.51468 342.1393 111.20795 L 339.33266 108.04974 L 331.69985 113.24506 C 327.50097 116.10312 319.24811 120.41068 313.36196 122.81732 C 307.4758 125.22397 303.11103 127.58534 303.66274 128.06341 C 304.21446 128.5415 309.03796 130.30578 314.38149 131.98334 C 319.72503 133.6609 327.52569 137.13096 331.71548 139.69623 C 345.45926 148.11107 345.60686 148.16525 348.63344 145.95404 C 357.18664 139.70513 357.60232 139.51697 359.80141 140.88177 C 363.79084 143.35773 365.61242 149.45801 366.80923 164.34662 C 367.45926 172.43318 368.66741 179.86378 369.49282 180.85834 C 371.70552 183.52447 379.64885 183.16519 381.11196 180.33295 C 381.77491 179.04961 382.62272 172.85096 382.99673 166.55756 C 383.7792 153.39079 387.65115 142.66693 391.62173 142.66693 C 395.7289 142.66693 404.1716 150.77274 407.49282 157.90521 C 412.50385 168.66666 411.17246 179.35439 403.43032 190.52631 C 401.50375 193.30633 399.69631 196.72547 399.41469 198.12396 C 399.13307 199.52245 398.35714 202.16758 397.69008 204.00091 C 397.02302 205.83424 396.56853 208.53425 396.67837 210.00091 C 396.78822 211.46757 396.98066 214.31628 397.1061 216.33295 C 397.23153 218.34961 397.66386 220.00091 398.06899 220.00091 C 398.47413 220.00091 404.02478 216.58911 410.40298 212.42084 C 432.74307 197.82112 445.08378 181.9585 450.85805 160.41888 C 454.55605 146.62438 454.93726 113.4147 451.55532 99.584899 C 445.19802 73.587821 432.33056 60.331955 408.64321 55.375915 C 400.45574 53.662873 399.097 53.664313 397.36977 55.39154 C 395.64 57.121316 395.71727 57.935645 398.02016 62.211852 C 399.45826 64.88223 403.43771 68.921212 406.86391 71.188415 C 415.33176 76.79179 416.28713 78.774842 416.20962 90.594665 C 416.09331 108.32804 411.1877 115.3135 397.05141 117.87201 C 390.7903 119.00521 386.65571 115.46831 386.68618 109.00091 C 386.71188 103.55117 387.58294 102.26214 393.16079 99.403259 C 397.27866 97.292674 397.59728 96.690941 396.98501 92.215759 C 396.1536 86.138825 385.11799 62.577077 384.42055 65.389587 C 384.14006 66.520657 385.43192 71.485172 387.28969 76.420837 C 391.82245 88.463245 391.69345 91.400801 386.5143 94.07904 C 384.23005 95.260277 381.90851 95.726601 381.3561 95.114196 C 380.48758 94.151359 377.29585 63.861883 377.3229 56.836852 C 377.3309 54.76908 377.67619 54.626162 379.33266 56.000915 C 381.03382 57.412746 381.31738 57.086682 381.2311 53.82904 C 381.08342 48.253308 378.0488 40.666931 375.96548 40.666931 z M 402.00063 56.934509 L 406.00063 57.850524 C 415.09258 59.933396 426.5307 66.829492 433.65298 74.522399 C 446.43573 88.329303 449.27922 98.062837 449.27993 128.00091 C 449.28048 151.02234 447.58816 161.4263 441.9811 172.87787 C 436.39647 184.28364 422.15103 200.1188 410.43813 207.94037 C 401.91768 213.6301 398.66665 214.58538 398.66665 211.39935 C 398.66665 210.33585 401.5173 207.18585 405.00063 204.39935 C 430.99512 183.60502 441.938 162.11082 443.55923 128.66693 C 445.0822 97.25002 435.26497 76.116843 414.60415 66.342712 C 410.56823 64.433416 406.08152 61.536186 404.63344 59.903259 L 402.00063 56.934509 z M 339.94594 116.00091 C 343.6691 116.00091 343.37548 118.46336 339.47524 119.94623 C 334.93965 121.67066 326.66665 123.10968 326.66665 122.17474 C 326.66665 120.83664 337.06842 116.00092 339.94594 116.00091 z "
       transform="translate(-98.666647,-24.04779)" />
  </g>
</svg>
